<svg id="visual" viewBox="0 0 900 600" width="900" height="600" xmlns="http://www.w3.org/2000/svg" xmlns:xlink="http://www.w3.org/1999/xlink" version="1.1"><rect x="0" y="0" width="900" height="600" fill="#ffffff"></rect><path d="M0 445L21.5 442.2C43 439.3 86 433.7 128.8 434.2C171.7 434.7 214.3 441.3 257.2 443.3C300 445.3 343 442.7 385.8 433C428.7 423.3 471.3 406.7 514.2 407.3C557 408 600 426 642.8 419.3C685.7 412.7 728.3 381.3 771.2 370.3C814 359.3 857 368.7 878.5 373.3L900 378L900 601L878.5 601C857 601 814 601 771.2 601C728.3 601 685.7 601 642.8 601C600 601 557 601 514.2 601C471.3 601 428.7 601 385.8 601C343 601 300 601 257.2 601C214.3 601 171.7 601 128.8 601C86 601 43 601 21.5 601L0 601Z" fill="#001d87"></path><path d="M0 400L21.5 412C43 424 86 448 128.8 447.2C171.7 446.3 214.3 420.7 257.2 422C300 423.3 343 451.7 385.8 461C428.7 470.3 471.3 460.7 514.2 451C557 441.3 600 431.7 642.8 433C685.7 434.3 728.3 446.7 771.2 453.3C814 460 857 461 878.5 461.5L900 462L900 601L878.5 601C857 601 814 601 771.2 601C728.3 601 685.7 601 642.8 601C600 601 557 601 514.2 601C471.3 601 428.7 601 385.8 601C343 601 300 601 257.2 601C214.3 601 171.7 601 128.8 601C86 601 43 601 21.5 601L0 601Z" fill="#02177a"></path><path d="M0 485L21.5 484.7C43 484.3 86 483.7 128.8 479.8C171.7 476 214.3 469 257.2 470.7C300 472.3 343 482.7 385.8 488.7C428.7 494.7 471.3 496.3 514.2 489.2C557 482 600 466 642.8 456.7C685.7 447.3 728.3 444.7 771.2 444.3C814 444 857 446 878.5 447L900 448L900 601L878.5 601C857 601 814 601 771.2 601C728.3 601 685.7 601 642.8 601C600 601 557 601 514.2 601C471.3 601 428.7 601 385.8 601C343 601 300 601 257.2 601C214.3 601 171.7 601 128.8 601C86 601 43 601 21.5 601L0 601Z" fill="#02116d"></path><path d="M0 498L21.5 503.2C43 508.3 86 518.7 128.8 525C171.7 531.3 214.3 533.7 257.2 527.8C300 522 343 508 385.8 499.5C428.7 491 471.3 488 514.2 495.8C557 503.7 600 522.3 642.8 529.7C685.7 537 728.3 533 771.2 532.3C814 531.7 857 534.3 878.5 535.7L900 537L900 601L878.5 601C857 601 814 601 771.2 601C728.3 601 685.7 601 642.8 601C600 601 557 601 514.2 601C471.3 601 428.7 601 385.8 601C343 601 300 601 257.2 601C214.3 601 171.7 601 128.8 601C86 601 43 601 21.5 601L0 601Z" fill="#010b60"></path><path d="M0 541L21.5 544.8C43 548.7 86 556.3 128.8 560.3C171.7 564.3 214.3 564.7 257.2 562.3C300 560 343 555 385.8 555.7C428.7 556.3 471.3 562.7 514.2 565.8C557 569 600 569 642.8 566.2C685.7 563.3 728.3 557.7 771.2 553.3C814 549 857 546 878.5 544.5L900 543L900 601L878.5 601C857 601 814 601 771.2 601C728.3 601 685.7 601 642.8 601C600 601 557 601 514.2 601C471.3 601 428.7 601 385.8 601C343 601 300 601 257.2 601C214.3 601 171.7 601 128.8 601C86 601 43 601 21.5 601L0 601Z" fill="#000554"></path></svg>